<?xml version="1.0" encoding="iso-8859-1"?>
<!-- Generator: Adobe Illustrator 19.0.0, SVG Export Plug-In . SVG Version: 6.00 Build 0)  -->
<svg version="1.1" id="Capa_1" xmlns="http://www.w3.org/2000/svg" xmlns:xlink="http://www.w3.org/1999/xlink" x="0px" y="0px"
	 viewBox="0 0 512 512" style="enable-background:new 0 0 512 512;" xml:space="preserve">
<g>
	<g>
		<g>
			<path d="M437.02,74.98C388.667,26.629,324.38,0,256,0S123.333,26.629,74.98,74.98C26.629,123.333,0,187.62,0,256
				s26.629,132.667,74.98,181.02C123.333,485.371,187.62,512,256,512s132.667-26.629,181.02-74.98
				C485.371,388.667,512,324.38,512,256S485.371,123.333,437.02,74.98z M415.806,415.806C373.12,458.492,316.367,482,256,482
				s-117.12-23.508-159.806-66.194C53.508,373.12,30,316.367,30,256S53.508,138.88,96.194,96.194C138.88,53.508,195.633,30,256,30
				s117.12,23.508,159.806,66.194C458.492,138.88,482,195.633,482,256S458.492,373.12,415.806,415.806z"/>
			<rect x="241" y="80" width="30" height="60"/>
			<rect x="153" y="114.562" transform="matrix(-0.5 -0.866 0.866 -0.5 162.2974 352.825)" width="59.999" height="29.999"/>
			<rect x="99.562" y="168.002" transform="matrix(-0.866 -0.5 0.5 -0.866 150.2603 406.2672)" width="59.999" height="29.999"/>
			<rect x="80" y="241" width="60" height="30"/>
			<rect x="372" y="241" width="60" height="30"/>
			<rect x="352.434" y="167.998" transform="matrix(0.866 -0.5 0.5 0.866 -40.2623 215.7391)" width="59.999" height="29.999"/>
			<rect x="299" y="114.566" transform="matrix(0.5 -0.866 0.866 0.5 52.2893 349.701)" width="59.999" height="29.999"/>
			<path d="M271,313.58V191h-30v122.58c-17.459,6.192-30,22.865-30,42.42c0,24.813,20.187,45,45,45s45-20.187,45-45
				C301,336.445,288.459,319.772,271,313.58z M256,371c-8.271,0-15-6.729-15-15s6.729-15,15-15s15,6.729,15,15S264.271,371,256,371z
				"/>
		</g>
	</g>
</g>
<g>
</g>
<g>
</g>
<g>
</g>
<g>
</g>
<g>
</g>
<g>
</g>
<g>
</g>
<g>
</g>
<g>
</g>
<g>
</g>
<g>
</g>
<g>
</g>
<g>
</g>
<g>
</g>
<g>
</g>
</svg>
