<svg id="Layer_1" enable-background="new 0 0 512 512" height="512" viewBox="0 0 512 512" width="512" xmlns="http://www.w3.org/2000/svg"><g><path d="m432.733 112.467c-43.708 0-79.267 35.559-79.267 79.267 0 5.958 1.096 11.747 3.193 17.133h-104.925c37.69-35.129 35.332-80.015 35.332-81.4 0-43.708-35.559-79.267-79.267-79.267s-79.267 35.559-79.267 79.267c0 5.958 1.096 11.747 3.193 17.133h-116.725c-8.284 0-15 6.716-15 15s6.716 15 15 15h160.667.037c23.538-.018 47.097-18.711 47.097-47.133 0-8.284-6.716-15-15-15s-15 6.716-15 15v.027.002c-.014 8.006-6.402 17.086-17.107 17.104-.008 0-.018 0-.026 0-9.351 0-17.133-7.536-17.133-17.133 0-27.166 22.101-49.267 49.267-49.267s49.267 22.101 49.267 49.267c0 45.34-36.715 81.4-81.4 81.4h-160.669c-8.284 0-15 6.716-15 15s6.716 15 15 15h385.6c25.989 0 47.133-21.144 47.133-47.133 0-8.284-6.716-15-15-15s-15 6.716-15 15c0 9.447-7.686 17.133-17.133 17.133-9.353 0-17.133-7.538-17.133-17.133 0-27.166 22.101-49.267 49.267-49.267s49.266 22.101 49.266 49.266c0 45.369-36.742 81.4-81.4 81.4h-385.6c-8.284 0-15 6.716-15 15s6.716 15 15 15h273.133c44.728 0 81.4 36.083 81.4 81.4 0 27.166-22.101 49.267-49.267 49.267s-49.266-22.101-49.266-49.267c0-9.615 7.781-17.133 17.133-17.133 9.447 0 17.133 7.686 17.133 17.133 0 8.284 6.716 15 15 15s15-6.716 15-15c0-25.989-21.144-47.133-47.133-47.133h-273.133c-8.284 0-15 6.716-15 15s6.716 15 15 15h229.19c-2.095 5.387-3.19 11.174-3.19 17.133 0 43.708 35.559 79.267 79.267 79.267s79.267-35.559 79.267-79.267c0-1.303 2.36-46.263-35.322-81.4h36.388c61.164 0 111.4-49.387 111.4-111.4 0-43.708-35.559-79.266-79.267-79.266z"/><path d="m191.733 401.667h-176.733c-8.284 0-15 6.716-15 15s6.716 15 15 15h176.733c8.284 0 15-6.716 15-15s-6.715-15-15-15z"/><path d="m15 110.333h64.267c8.284 0 15-6.716 15-15s-6.716-15-15-15h-64.267c-8.284 0-15 6.716-15 15s6.716 15 15 15z"/></g></svg>